<svg width="132" height="103" viewBox="0 0 132 103" fill="none" xmlns="http://www.w3.org/2000/svg">
<path d="M34.654 96.0458L13.737 64.5786L5.58395 69.9981C7.07345 74.0272 4.06415 77.1503 1.59074 78.7944L0.399843 79.5861L5.11911 86.6856C9.05823 84.0672 10.1885 82.9857 11.3347 81.4313L25.2184 102.318L34.654 96.0458ZM36.2988 71.0451C34.4039 73.5595 32.9794 77.8745 35.9328 82.3175C40.1649 88.6842 48.5559 87.7955 56.022 82.8327C64.0834 77.474 68.0745 70.2641 63.6293 63.5768C61.4371 60.2789 58.3884 58.6731 53.7196 59.399C55.1586 55.6026 54.8415 53.2378 53.0146 50.4896C48.204 43.2525 39.764 46.5514 34.9088 49.7787C27.1679 54.9242 24.4133 61.5104 28.1583 67.1443C30.0155 69.9383 32.5307 71.2383 36.2988 71.0451ZM44.7692 56.5649C45.6217 57.8474 46.1369 60.4108 42.9764 62.5117C39.8617 64.582 37.5144 63.2365 36.6619 61.954C35.4136 60.076 35.9505 57.8039 38.4697 56.1293C41.3554 54.2111 43.6122 54.8244 44.7692 56.5649ZM54.3163 69.4371C55.3819 71.0402 56.1404 74.1684 52.2471 76.7564C48.4454 79.2835 45.931 77.3885 44.9567 75.9228C43.1907 73.2662 44.4913 70.3544 46.9189 68.7407C50.5374 66.3354 53.2506 67.834 54.3163 69.4371ZM80.5505 65.5373L74.8265 56.9262L66.4902 62.4675L72.2142 71.0786L80.5505 65.5373ZM99.9568 29.4566C92.8017 18.6927 83.4679 17.3683 75.6355 22.5747C65.3754 29.3948 67.6482 40.7623 72.8851 48.6405C78.8831 57.6639 88.0607 61.7339 97.0383 55.7663C108.443 48.185 104.128 35.7317 99.9568 29.4566ZM91.1457 36.3702C94.3427 41.1796 96.9134 46.5373 93.0659 49.0948C88.7145 51.9873 84.7257 46.1853 82.6249 43.0248C79.6411 38.536 75.3333 31.7573 79.7762 28.804C83.3031 26.4596 87.005 30.1408 91.1457 36.3702ZM131.137 31.9111L110.22 0.443914L102.067 5.86346C103.557 9.89259 100.547 13.0157 98.074 14.6598L96.8831 15.4514L101.602 22.551C105.541 19.9326 106.672 18.851 107.818 17.2966L121.702 38.1832L131.137 31.9111Z" fill="#F6E24B"/>
</svg>
