<svg width="80" height="216" viewBox="0 0 80 216" fill="none" xmlns="http://www.w3.org/2000/svg">
<path d="M11.3041 0.834465C2.69795 3.14165 -0.567024 9.65422 1.31291 16.6666C3.10739 23.3602 9.17146 27.7135 18.1494 25.3066C27.1274 22.8997 29.7938 16.4907 28.0278 9.90328C25.1224 -0.934032 15.3415 -0.247919 11.3041 0.834465ZM12.3164 5.4601C13.9101 5.03285 22.4773 2.79303 24.6136 10.7616C26.1375 16.4459 21.5464 19.4989 17.2434 20.6525C10.7622 22.39 6.06583 20.8019 4.69861 15.702C2.88989 8.95524 9.34141 6.25765 12.3164 5.4601ZM30.7589 23.2767L27.2527 24.2167L29.4887 32.5572L7.97342 38.3252L9.08429 42.4688L30.5995 36.7009L32.8355 45.0413L36.3417 44.1014L30.7589 23.2767ZM37.48 48.3472L12.4585 55.0551L13.5694 59.1988L25.1504 56.094L26.3895 60.7158C28.3976 68.2063 21.0981 67.3161 16.845 71.4173L18.1268 76.1985C21.6947 71.0283 29.5824 71.9885 29.6264 65.1437C32.1027 70.3448 38.1582 65.5327 43.0058 68.9593L41.724 64.1781C37.5161 62.2883 31.6474 66.3101 30.0096 60.2009L28.6566 55.1541L38.5908 52.4908L37.48 48.3472ZM44.281 73.716L7.35977 83.6141L8.47064 87.7578L23.2923 83.7843C21.2408 86.3272 20.9835 90.0405 21.838 93.228C24.2449 102.206 32.476 102.96 38.2134 101.422C47.5632 98.9156 49.9628 91.7239 48.5814 86.5709C47.4135 82.2147 43.9559 79.7251 41.8326 78.8139L45.3919 77.8597L44.281 73.716ZM32.4296 81.3347C38.6982 79.6541 43.1406 81.9936 44.4366 86.8279C45.3623 90.281 43.9478 94.9878 37.148 96.8107C31.3043 98.3774 26.7673 96.7466 25.4001 91.6467C24.0898 86.7592 26.7453 82.8586 32.4296 81.3347ZM53.389 107.69L52.2782 103.546L27.2567 110.254L29.9057 120.135C31.6432 126.617 34.2793 129.44 40.3355 127.817C44.2666 126.763 47.1358 123.659 45.4125 117.231L43.5611 110.325L53.389 107.69ZM40.0549 111.265L41.3794 116.205C42.3763 119.924 42.3266 122.5 38.9798 123.397C35.6861 124.28 34.1667 122.011 33.298 118.77L31.8738 113.458L40.0549 111.265ZM58.3452 126.177L33.3238 132.885L34.4346 137.029L59.4561 130.321L58.3452 126.177ZM60.5918 134.557L57.0856 135.497L59.3216 143.838L37.8063 149.606L38.9172 153.749L60.4324 147.981L62.6684 156.322L66.1746 155.382L60.5918 134.557ZM67.3128 159.628L42.2914 166.336L43.4022 170.479L46.4834 169.653L64.2565 179.238L46.9912 183.866L48.1021 188.01L73.1235 181.302L72.0126 177.159L69.3564 177.871L51.5834 168.286L68.4237 163.771L67.3128 159.628ZM62.5633 195.011L67.6619 214.03L68.3525 213.845C78.0742 211.238 80.1304 204.253 78.6635 198.781C77.2678 193.575 71.857 187.623 62.3478 190.172C52.4667 192.821 50.439 199.913 52.091 206.076C54.3413 214.469 61.6615 215.012 63.5713 215.127L63.0021 210.667C60.5753 210.748 56.5745 210.055 55.3924 205.646C53.7831 199.643 58.3665 196.137 62.2445 195.097L62.5633 195.011ZM65.6729 194.292C69.7569 193.595 74.0738 194.83 75.2843 199.345C76.4237 203.595 73.6477 207.471 69.504 208.582L65.6729 194.292Z" fill="#F6E24B"/>
</svg>
