<svg width="788" height="915" viewBox="0 0 788 915" fill="none" xmlns="http://www.w3.org/2000/svg">
<g clip-path="url(#clip0)">
<path d="M633.903 687.516C623.86 696.884 609.792 704.609 595.595 701.823C591.065 700.974 589.443 707.866 593.973 708.715C610.772 711.982 627.152 703.442 639.208 692.284C642.513 689.139 637.305 684.341 633.903 687.516Z" fill="#F4D80F"/>
<path d="M648.01 539.308L635.91 544.405C629.68 547.061 622.46 544.053 619.932 537.901L611.669 518.267C609.015 512.047 612.032 504.833 618.195 502.304L630.294 497.207C636.524 494.551 643.745 497.559 646.272 503.711L654.535 523.345C665.114 544.614 654.27 536.749 648.01 539.308Z" fill="#F4D80F"/>
<path d="M644.417 673.421L643.132 674.454C640.693 675.202 637.74 673.23 636.993 670.795L635.798 666.898C635.051 664.463 635.019 660.529 637.458 659.781L638.727 659.392C641.166 658.644 643.93 661.74 644.677 664.175L645.872 668.072C647.895 669.796 648.112 670.156 644.417 673.421Z" fill="black"/>
<path d="M561.073 504.688C561.108 507.235 561.773 509.056 562.978 511.245C564.31 513.501 567.872 514.327 570.072 512.799C573.722 510.081 576.164 506.561 580.256 504.24C584.017 502.234 586.94 498.887 590.633 497.008C595.047 494.695 601.13 495.387 606.044 495.053C611.281 494.725 615.926 493.514 621.161 494.573C625.143 495.377 629.442 495.124 631.069 490.682C632.348 487.198 630.568 483.481 627.352 481.697C623.881 479.777 618.84 480.044 614.88 479.66C609.697 479.118 604.595 479.19 599.679 480.911C593.525 483.118 596.513 492.86 602.667 490.653C606.217 489.351 609.705 489.24 613.441 489.587C615.406 489.73 617.334 490.098 619.299 490.241C619.749 490.317 620.169 490.294 620.619 490.369C622.989 491.135 623.17 490.333 621.125 488.189C622.251 486.991 623.446 485.666 624.573 484.467C623.139 485.014 620.2 483.783 618.46 483.678C615.302 483.474 612.353 483.952 609.277 484.362C603.222 485.154 597.004 484.716 591 486.024C585.417 487.31 582.525 490.755 577.997 493.742C575.699 495.3 573.027 496.332 570.76 497.987C568.424 499.769 566.845 502.278 564.51 504.06C566.917 504.601 569.197 505.074 571.605 505.615C571.455 505.128 571.433 504.708 571.284 504.221C571.15 497.867 560.88 498.14 561.073 504.688Z" fill="#6172F0"/>
<path d="M431.093 502.898C432.088 494.117 412.014 484.655 386.256 481.765C360.497 478.875 338.809 483.65 337.814 492.432C336.819 501.213 356.894 510.675 382.652 513.565C408.41 516.455 430.098 511.679 431.093 502.898Z" fill="#F9FAFA" stroke="#231F20" stroke-miterlimit="10"/>
<path d="M430.124 511.517C431.119 502.736 411.045 493.274 385.286 490.384C359.528 487.494 337.84 492.269 336.845 501.051C335.85 509.832 355.925 519.294 381.683 522.184C407.441 525.074 429.129 520.298 430.124 511.517Z" fill="black"/>
<path d="M558.979 651.343C557.828 653.508 557.046 655.133 555.993 657.268C555.684 658.002 554.649 658.107 554.079 657.642C548.655 652.484 548.979 651.106 553.654 644.77C556.059 641.474 557.452 637.317 559.063 633.519C559.545 632.305 559.899 631.024 560.253 629.743C560.54 628.59 562.123 628.531 562.549 629.572C565.532 636.864 568.382 643.024 569.836 649.505C571.171 655.597 570.562 661.966 570.718 668.739C570.694 669.705 569.681 670.229 568.916 669.824C561.278 665.453 555.83 661.262 561.844 651.637C562.115 651.127 561.697 649.764 560.797 649.613C560.024 649.531 559.182 650.961 558.979 651.343Z" fill="#333333"/>
<path d="M652.629 518.175C652.719 518.467 652.261 518.714 652.074 518.452C645.185 508.521 602.741 452.262 567.681 511.614C563.741 518.258 552.851 499.11 544.227 491.523C527.233 476.485 494.915 454.636 467.185 462.714C446.637 468.803 433.491 482.32 418.655 502.857C415.717 506.849 410.733 508.697 405.956 507.391L355.27 493.52C353.636 493.062 352.805 491.399 353.617 489.871C390.468 415.474 523.286 326.141 628.195 463.213C632.577 467.411 637.072 477.543 640.074 482.804C644.22 490.059 650.725 511.618 652.629 518.175Z" fill="#333333"/>
<path d="M488.053 496.66C505.705 490.803 515.272 471.768 509.423 454.143C503.574 436.519 484.522 426.979 466.871 432.836C449.219 438.693 439.652 457.729 445.501 475.353C451.35 492.978 470.401 502.517 488.053 496.66Z" fill="#F4D80F"/>
<path d="M426.365 457.498C435.671 449.393 440.664 439.902 437.517 436.297C434.371 432.692 424.277 436.34 414.971 444.444C405.666 452.549 400.673 462.041 403.82 465.645C406.966 469.25 417.06 465.602 426.365 457.498Z" fill="#F9FAFA" stroke="#231F20" stroke-miterlimit="10"/>
<path d="M429.464 461.016C438.77 452.912 443.763 443.42 440.616 439.815C437.47 436.211 427.376 439.858 418.07 447.963C408.765 456.067 403.772 465.559 406.919 469.163C410.065 472.768 420.159 469.12 429.464 461.016Z" fill="black"/>
<path d="M416.026 415.629C414.234 415.006 413.595 410.833 417.818 411.03C421.591 411.152 430.95 413.823 438.754 423.26C440.289 425.134 441.508 428.064 440.463 429.877C439.922 430.896 438.6 432.154 427.909 432.448C421.03 432.639 417.46 432.136 417.376 432.907C417.263 433.582 419.857 434.385 424.318 436.747C430.082 439.882 433.298 441.666 433.804 444.709C434.199 447.039 433.534 450.44 431.043 450.671C427.164 450.901 423.054 450.03 422.815 449.251C422.487 448.179 427.933 448.534 428.197 446.961C428.56 445.358 423.844 442.86 418.462 439.928C414.099 437.536 413.05 436.899 411.927 435.325C410.489 433.421 409.248 430.071 415.08 427.856C418.337 426.644 432.964 427.7 433.145 426.899C433.47 425.52 425.819 419.021 416.026 415.629Z" fill="#F4D80F" stroke="#231F20" stroke-width="2" stroke-miterlimit="10"/>
<path d="M464.263 465.162C464.841 453.475 474.011 445.44 485.15 446.607C487.693 446.892 488.989 447.987 489.571 450.58C491.553 460.523 484.115 474.208 474.658 478.174C472.376 479.087 470.576 478.787 468.875 477.07C465.436 473.862 464.084 469.8 464.263 465.162ZM466.781 461.193C466.513 465.538 469.179 468.664 473.462 469.055C478.488 469.433 483.708 464.528 484.263 459.028C484.659 454.751 481.648 451.198 477.492 450.873C472.017 450.421 467.254 455.079 466.781 461.193Z" fill="black"/>
<path d="M466.781 461.193C467.254 455.079 472.017 450.421 477.463 450.776C481.618 451.1 484.659 454.751 484.233 458.931C483.678 464.43 478.458 469.335 473.432 468.958C469.179 468.664 466.483 465.441 466.781 461.193ZM473.212 454.318C472.107 455.936 470.62 457.351 470.897 457.906C471.944 459.929 473.45 461.705 474.857 463.512C475.946 462.538 478.117 460.914 477.9 460.554C476.754 458.56 475.151 456.814 473.212 454.318Z" fill="white"/>
<path d="M473.212 454.318C475.151 456.814 476.754 458.56 477.929 460.651C478.147 461.011 475.946 462.538 474.887 463.609C473.577 461.773 471.974 460.026 470.926 458.003C470.62 457.351 472.009 455.966 473.212 454.318Z" fill="black"/>
<path d="M419.955 501.179C413.607 513.891 386.437 512.312 373.391 507.36C341.187 495.282 355.569 489.272 354.985 488.066L419.955 501.179Z" fill="#333333"/>
<path d="M591.922 582.302C589.763 580.833 589.49 577.506 590.678 575.116C591.867 572.727 594.135 571.072 596.207 569.477C602.095 565.007 607.96 560.118 612.019 553.863C614.838 549.482 617.066 544.216 621.585 541.551" fill="black"/>
<path d="M600.576 572.933C602.058 575.676 602.602 578.494 601.953 581.251C601.338 581.333 601.668 581.018 603.042 580.277C604.513 579.506 605.903 578.121 607.09 577.117C610.416 574.392 613.646 571.696 616.531 568.573C619.348 565.578 621.791 562.057 624.038 558.597C625.384 556.372 627.008 553.316 628.323 552.38C641.845 543.224 628.274 521.594 614.683 530.878C609.202 534.584 605.722 539.595 602.421 545.19C599.865 549.384 596.582 552.949 592.827 556.019C587.818 560.22 582.119 563.566 579.193 569.686C575.649 577.274 577.183 585.756 583.237 591.573C595.06 602.975 612.369 584.238 600.576 572.933Z" fill="black"/>
<path d="M588.184 639.722C586.429 638.875 589.274 632.14 590.094 630.29C590.982 628.313 591.87 626.335 592.435 624.35C592.895 622.717 592.815 620.716 593.628 619.188C597.975 610.394 584.467 603.24 580.119 612.034C578.592 615.06 578.551 618.057 577.474 621.158C576.186 624.964 573.976 628.199 573.168 632.177C571.522 640.036 572.837 649.544 581.009 653.22C589.946 657.3 597.218 643.772 588.184 639.722Z" fill="#6172F0"/>
<path d="M648.083 535.023C643.933 535.762 640.172 537.769 637.13 540.727C633.758 543.999 632.454 548.449 629.493 552.021C622.603 560.529 614.565 568.43 606.978 576.405C609.618 576.662 612.356 576.888 614.996 577.144C612.818 573.868 609.285 573.14 605.944 575.124C602.799 577.048 602.829 582.367 606.308 583.965C606.817 584.235 607.425 584.475 607.934 584.745C607.781 581.808 607.725 578.841 607.571 575.904C606.55 576.75 605.341 577.334 603.946 577.655C601.604 578.373 600.521 580.411 600.368 582.696C600.07 586.944 595.701 588.71 595.178 592.92C594.693 596.906 596.067 601.387 596.354 605.456C596.994 614.852 596.344 624.217 594.501 633.521C593.179 640.002 603.161 642.269 604.385 635.819C606.266 626.289 607.149 616.64 606.614 606.892C606.387 603.018 604.377 596.814 606.265 593.57C608.49 589.69 610.264 587.121 610.511 582.356C609.308 584.004 608.106 585.652 606.933 587.397C609.177 586.709 611.069 585.915 613.006 584.575C616.024 582.584 616.249 577.399 612.643 575.734C612.133 575.464 611.526 575.224 611.016 574.954C611.169 577.891 611.225 580.858 611.379 583.795C611.642 583.608 611.837 583.548 612.1 583.361C610.772 583.555 609.474 583.847 608.145 584.041C608.468 584.048 608.723 584.183 609.045 584.191C607.966 583.456 606.985 582.692 605.905 581.957C606.092 582.219 606.25 582.384 606.339 582.676C608.144 585.427 612.104 585.811 614.358 583.415C621.246 576.293 627.88 569.036 634.484 561.681C639.796 555.683 642.216 546.521 650.808 544.952C657.426 543.561 654.439 533.82 648.083 535.023Z" fill="#6172F0"/>
<path d="M643.703 534.661C634.526 536.41 628.469 543.809 625.674 552.446C624.138 557.181 618.949 560.797 615.381 564.13C611.123 567.994 606.766 571.887 602.725 576.111C605.365 576.367 608.103 576.593 610.743 576.849C608.565 573.574 605.032 572.846 601.691 574.829C598.545 576.753 598.576 582.073 602.055 583.671C602.564 583.941 603.172 584.181 603.681 584.451C603.528 581.514 603.472 578.547 603.318 575.609C602.297 576.456 601.088 577.039 599.692 577.361C597.351 578.079 596.268 580.116 596.115 582.402C595.817 586.65 591.448 588.416 590.925 592.626C590.439 596.612 591.814 601.093 592.101 605.161C592.741 614.557 592.091 623.922 590.248 633.227C588.926 639.707 598.908 641.975 600.132 635.525C602.013 625.995 602.896 616.345 602.361 606.598C602.134 602.724 600.124 596.519 602.012 593.276C604.237 589.396 606.011 586.827 606.258 582.062C605.055 583.71 603.853 585.357 602.68 587.102C604.924 586.414 606.816 585.621 608.753 584.281C611.771 582.289 611.996 577.105 608.39 575.44C607.88 575.17 607.272 574.93 606.763 574.66C606.916 577.597 606.972 580.564 607.126 583.501C607.389 583.314 607.584 583.254 607.847 583.067C606.519 583.261 605.22 583.552 603.892 583.746C604.215 583.754 604.47 583.889 604.792 583.897C603.713 583.162 602.731 582.397 601.652 581.663C601.839 581.925 601.997 582.09 602.086 582.382C603.92 585.23 607.821 585.419 610.105 583.12C617.091 575.968 625.471 569.881 631.985 562.235C637.47 555.756 636.567 546.548 646.652 544.627C653.046 543.199 650.058 533.458 643.703 534.661Z" fill="#6172F0"/>
<path d="M577.313 528.057C579.967 523.833 582.659 519.384 586.452 516.089C590.74 512.322 596.158 511.194 601.665 510.357C608.11 509.446 607.877 499.287 601.431 500.198C594.146 501.153 587.04 502.693 581.085 507.29C575.685 511.611 571.926 517.453 568.265 523.265C564.867 528.89 573.915 533.682 577.313 528.057Z" fill="#6172F0"/>
<path d="M566.89 552.89C574.329 549.649 581.5 544.146 587.254 538.544C590.033 535.773 592.341 532.508 595.09 529.64C598.899 525.701 603.395 524.002 608.536 522.319C614.72 520.209 611.732 510.467 605.548 512.577C596.632 515.525 590.37 519.47 584.322 526.547C578.935 532.996 571.731 539.788 563.903 543.148C557.995 545.812 560.885 555.584 566.89 552.89Z" fill="#6172F0"/>
<path d="M575.945 569.19C575.658 565.121 579.6 562.314 582.372 559.865C586.135 556.473 589.868 552.983 593.631 549.591C601.389 542.522 609.208 535.648 617.558 529.463C622.785 525.622 617.35 516.951 612.056 520.919C601.836 528.317 592.493 536.831 583.247 545.315C576.412 551.568 564.902 558.935 565.803 569.53C566.319 576.086 576.462 575.746 575.945 569.19Z" fill="#6172F0"/>
<path d="M573.794 663.106C578.662 675.149 582.671 689.267 597.77 690.818C610.326 692.083 623.119 690.291 635.669 690.492C642.218 690.615 641.984 680.455 635.435 680.332C625.113 680.087 614.925 680.974 604.565 680.953C599.434 680.928 594.85 680.949 591.24 676.833C587.157 672.224 585.801 665.712 583.55 660.114C581.18 654.126 571.394 657.021 573.794 663.106Z" fill="#6172F0"/>
<path d="M635.683 668.958C642.379 665.732 627.079 663.177 622.499 660.425C615.693 656.331 611.877 648.762 606.439 642.863C604.993 641.281 603.517 639.602 602.92 637.654C602.203 635.316 602.686 632.716 603.132 630.341C605.58 617.441 605.931 607.101 608.379 594.201C608.863 591.601 607.634 585.157 608.755 582.895C610.417 579.614 618.744 579.618 619.926 576.165C627.08 555.639 640.541 542.452 658.496 546.004" fill="black"/>
<path d="M668.794 670.421C658.513 667.179 655.278 663.589 646.267 658.572C642.287 656.382 640.423 653.436 636.659 651.606C632.101 649.274 627.093 646.867 624.439 640.647C623.25 637.814 621.212 635.348 619.41 631.211C617.667 627.269 621.231 621.487 622.79 617.172C626.004 608.512 626.89 602.699 631.23 594.227" fill="black"/>
<path d="M646.291 601.225C643.642 607.899 642.86 614.747 643.81 622.022C644.769 628.976 646.422 637.848 650.901 643.402C653.155 646.227 656.222 647.525 659.28 649.145C662.751 651.065 665.756 653.554 669.294 655.346C676.078 659.021 683.788 660.493 691.546 660.032C698.14 659.609 697.809 649.479 691.312 649.873C685.655 650.222 680.03 649.283 674.865 646.71C672.346 645.458 670.127 643.793 667.744 642.286C665.33 640.682 662.451 639.646 660.105 637.914C656.238 635.05 654.951 627.025 654.192 622.462C653.262 616.992 653.18 611.155 655.31 605.919C657.748 599.949 648.798 595.127 646.291 601.225Z" fill="#6172F0"/>
<path d="M644.862 604.221C642.213 610.895 641.431 617.743 642.381 625.019C643.34 631.972 644.993 640.844 649.472 646.398C651.726 649.224 654.792 650.521 657.851 652.141C661.322 654.061 664.327 656.55 667.865 658.343C674.649 662.017 682.359 663.49 690.116 663.029C696.711 662.605 696.38 652.475 689.882 652.869C684.226 653.218 678.601 652.279 673.435 649.707C670.917 648.454 668.698 646.79 666.315 645.282C663.901 643.678 661.022 642.643 658.676 640.911C654.809 638.047 653.522 630.022 652.763 625.458C651.833 619.988 651.75 614.152 653.88 608.916C656.319 602.945 647.271 598.153 644.862 604.221Z" fill="#6172F0"/>
<path d="M301.993 196.945C319.959 180.35 343.34 170.622 366.552 163.823C378.192 160.359 390.573 158.268 402.428 161.772C413.324 164.932 422.377 172.174 430.348 180.068C432.648 182.347 436.096 178.625 433.796 176.346C425.638 168.19 416.195 161.067 405.12 157.323C393.115 153.331 380.458 154.869 368.533 158.099C343.19 164.913 317.685 175.719 298.201 193.631C295.731 195.668 299.582 199.176 301.993 196.945Z" fill="#F4D80F"/>
<path d="M182.821 403.167C187.295 418.101 191.01 433.695 196.917 448.083C202.151 460.973 210.885 470.657 222.247 478.47C244.117 493.398 270.964 500.192 297.321 498.077C300.554 497.831 300.486 492.736 297.155 493.012C272.156 495.03 246.974 488.792 225.95 474.883C213.913 466.957 205.352 456.793 200.329 443.2C195.404 429.576 191.717 415.466 187.602 401.701C186.743 398.553 181.865 400.049 182.821 403.167Z" fill="#6172F0"/>
<path d="M579.71 603.739C578.519 597.07 573.064 591.816 572.196 585.154C571.646 581.273 571.661 575.407 573.616 572.036C572.071 571.87 570.526 571.705 568.883 571.569C569.853 575.428 569.39 579.833 569.422 583.767C569.444 589.409 570.697 594.886 572.731 600.125C573.882 603.182 578.76 601.686 577.609 598.628C575.456 593.001 574.593 587.403 574.549 581.342C574.576 577.603 574.739 573.61 573.829 569.946C573.269 567.773 570.141 567.666 569.096 569.479C566.832 573.584 566.779 579.675 567.088 584.163C567.543 591.91 573.634 597.503 574.899 605.108C575.398 608.472 580.276 606.976 579.71 603.739Z" fill="#F4D80F"/>
<path d="M573.598 657.944C573.809 657.24 575.362 657.083 575.572 657.765C577.006 662.441 577.992 665.656 578.97 669.192C583.644 685.131 595.869 693.319 612.369 690.39C621.186 688.858 629.675 684.869 638.433 688.365C641.117 689.46 644.018 690.915 645.741 693.051C652.945 701.926 661.317 707.991 673.236 708.919C681.997 709.642 690.802 711.205 699.547 712.573C714.644 715.51 719.692 721.529 705.466 723.867C710.251 724.851 715.171 725.58 719.82 726.819C724.92 728.132 728.164 731.401 729.777 736.661C731.249 741.112 730.465 744.124 727.492 745.568C726.741 745.905 725.774 745.882 725.009 745.477C720.774 743.152 717.539 738.176 713.285 739.268C711.889 739.589 711.616 741.485 712.891 742.16C719.615 745.639 721.578 747.169 722.831 752.646C723.726 756.955 725.94 761.392 719.905 763.988C715.372 765.912 708.968 763.826 706.184 758.924C705.286 757.388 703.729 755.094 702.996 753.401C700.663 747.188 697.304 745.981 695.24 747.253C692.357 748.99 699.897 753.392 702.098 757.087C704.111 760.519 701.933 762.466 698.871 763.618C692.679 766.05 684.726 761.349 683.662 754.747C683.275 752.095 682.57 746.663 680.364 747.126C678.48 747.597 681.573 751.764 680.018 753.307C674.955 758.377 667.537 751.593 663.809 745.702C660.081 739.811 651.91 741.358 647.612 735.002C645.059 731.202 655.697 725.169 652.137 722.957C646.733 719.605 646.295 738.71 638.67 735.08C632.545 732.163 622.422 734.308 620.112 728.515C616 718.586 637.2 701.746 637.47 701.236C639.471 697.319 629.715 705.533 626.418 708.356C623.121 711.179 620.858 715.284 617.68 718.497C612.91 723.477 608.708 723.699 603.688 719.164C599.582 715.521 586.86 703.969 592.348 706.549C599.845 710.111 612.891 709.84 621.874 701.543C626.035 697.709 638.435 692.201 639.156 691.767C642.963 689.214 632.338 690.767 627.211 693.192C623.488 694.973 620.384 699.123 617.155 701.818C607.136 710.22 593.387 708.894 586.103 698.019C581.933 691.731 578.258 684.971 574.449 678.466C570.707 671.833 571.532 665.825 573.598 657.944Z" fill="#333333"/>
<path d="M589.965 458.671C592.831 453.37 586.714 444.526 576.302 438.917C565.89 433.308 555.126 433.058 552.26 438.359C549.394 443.66 555.511 452.504 565.923 458.113C576.335 463.722 587.099 463.972 589.965 458.671Z" fill="#F9FAFA" stroke="#231F20" stroke-miterlimit="10"/>
<path d="M587.1 463.812C589.966 458.511 583.848 449.667 573.436 444.058C563.024 438.449 552.261 438.199 549.395 443.5C546.529 448.801 552.646 457.645 563.058 463.254C573.47 468.863 584.234 469.113 587.1 463.812Z" fill="black"/>
<path d="M560.663 441.4C561.564 429.719 570.794 421.879 581.925 423.368C584.497 423.752 585.794 424.846 586.18 427.499C587.87 437.532 580.177 451.082 570.63 454.756C568.348 455.669 566.518 455.271 564.915 453.524C561.641 450.159 560.387 446.067 560.663 441.4ZM563.309 437.497C562.913 441.775 565.512 445.028 569.727 445.547C574.685 446.052 580.16 441.282 580.813 435.753C581.336 431.542 578.393 427.862 574.207 427.44C568.799 426.861 563.88 431.354 563.309 437.497Z" fill="black"/>
<path d="M563.309 437.497C563.909 431.451 568.799 426.861 574.177 427.343C578.363 427.765 581.306 431.445 580.783 435.655C580.13 441.184 574.753 445.924 569.697 445.45C565.512 445.028 562.913 441.775 563.309 437.497ZM569.897 430.787C568.694 432.435 567.177 433.753 567.454 434.308C568.404 436.361 569.909 438.137 571.25 440.071C572.339 439.098 574.539 437.57 574.419 437.181C573.342 435.06 571.739 433.313 569.897 430.787Z" fill="white"/>
<path d="M569.897 430.787C571.739 433.313 573.372 435.157 574.419 437.181C574.636 437.54 572.436 439.068 571.25 440.071C569.91 438.137 568.404 436.361 567.454 434.308C567.177 433.753 568.694 432.435 569.897 430.787Z" fill="black"/>
<path d="M500.797 275.164C498.325 249.395 489.273 229.186 480.579 230.025C471.884 230.864 466.84 252.434 469.311 278.203C471.783 303.971 480.834 324.181 489.529 323.342C498.223 322.503 503.268 300.933 500.797 275.164Z" fill="#F9FAFA" stroke="#231F20" stroke-miterlimit="10"/>
<path d="M509.351 274.371C506.88 248.602 497.828 228.393 489.133 229.232C480.439 230.071 475.394 251.641 477.866 277.41C480.337 303.179 489.389 323.388 498.083 322.549C506.778 321.71 511.823 300.14 509.351 274.371Z" fill="black"/>
<path d="M492.645 312.197C484.581 329.058 345.928 557.029 221.926 449.579C192.538 424.06 184.048 366.447 241.525 328.676C290.111 296.723 372.853 298.524 378.273 296.009C384.083 293.375 398.667 286.984 396.922 279.206C392.837 260.315 374.007 249.037 345.28 256.995C330.301 261.056 298.869 283.166 277.587 299.391C205.474 354.867 80.4386 357.51 50.0249 263.563C41.9564 238.646 47.7931 204.776 60.2955 184.635C120.251 88.1253 226.581 143.869 242.019 167.058C243.98 169.973 193.512 156.462 180.049 153.983C68.0759 133.436 41.2495 363.027 242.59 250.014C261.441 239.437 319.141 180.815 369.192 175.909C475.468 165.697 464.933 256.642 461.629 270.232C447.968 326.965 409.448 331.531 376.262 358.016L362.626 350.794C337.453 342.847 306.66 358.685 306.66 358.685C265.451 381.981 298.614 406.236 318.093 397.704C347.487 384.959 440.895 264.228 480.319 239.987C498.577 235.133 494.668 308.699 492.645 312.197Z" fill="#333333"/>
<path d="M256.913 381.633C265.257 370.289 268.452 358.474 264.047 355.244C259.643 352.014 249.308 358.592 240.963 369.936C232.618 381.281 229.424 393.095 233.828 396.325C238.233 399.555 248.568 392.977 256.913 381.633Z" fill="#F9FAFA" stroke="#231F20" stroke-miterlimit="10"/>
<path d="M261.255 384.748C269.6 373.404 272.794 361.589 268.39 358.359C263.986 355.129 253.65 361.707 245.306 373.051C236.961 384.396 233.766 396.211 238.171 399.441C242.575 402.671 252.911 396.093 261.255 384.748Z" fill="black"/>
<path d="M426.989 338.97C436.835 332.007 442.892 323.645 440.517 320.292C438.142 316.94 428.234 319.866 418.387 326.829C408.541 333.791 402.484 342.153 404.859 345.506C407.234 348.859 417.142 345.933 426.989 338.97Z" fill="#F9FAFA" stroke="#231F20" stroke-miterlimit="10"/>
<path d="M429.31 342.321C439.157 335.358 445.214 326.996 442.839 323.643C440.463 320.29 430.556 323.217 420.709 330.179C410.862 337.142 404.805 345.504 407.18 348.857C409.556 352.21 419.463 349.283 429.31 342.321Z" fill="black"/>
<path d="M251.47 380.941C249.496 381.119 247.758 379.628 247.581 377.657L243.888 328.378C243.711 326.407 245.206 324.67 247.179 324.491C249.152 324.312 250.891 325.804 251.068 327.774L254.761 377.054C254.968 379.122 253.473 380.859 251.47 380.941Z" fill="#6172F0" stroke="#231F20" stroke-width="2" stroke-miterlimit="10"/>
<path d="M386.994 212.364C386.396 207.731 376.215 205.234 364.254 206.786C352.294 208.338 343.084 213.351 343.682 217.984C344.281 222.616 354.462 225.114 366.422 223.562C378.383 222.01 387.593 216.996 386.994 212.364Z" fill="#F9FAFA" stroke="#231F20" stroke-miterlimit="10"/>
<path d="M387.547 216.965C386.949 212.333 376.767 209.835 364.807 211.387C352.847 212.939 343.636 217.952 344.235 222.585C344.834 227.218 355.015 229.715 366.975 228.163C378.936 226.611 388.146 221.598 387.547 216.965Z" fill="black"/>
<path d="M370.212 354.648C370.153 354.454 370.25 354.424 370.348 354.394L370.513 354.237L370.814 353.825L371.513 352.971L372.94 351.361L375.765 348.043L381.348 341.535L392.61 328.489C396.397 324.13 400.116 319.898 404 315.51C407.817 311.249 411.604 306.89 415.578 302.793L463.527 253.45L463.655 253.517L415.862 303.026C411.888 307.122 408.102 311.481 404.285 315.742C400.468 320.004 396.682 324.362 392.993 328.691L381.827 341.707L376.245 348.215L373.517 351.503L372.09 353.113L371.391 353.967L371.091 354.379L370.925 354.536C370.828 354.566 370.887 354.761 370.662 354.724L370.212 354.648Z" fill="#231F20"/>
<path d="M435.317 278.408C433.366 279.006 432.186 281.074 432.783 283.022L437.92 301.164L421.695 294.203C420.961 293.895 420.091 293.842 419.183 294.014C417.329 294.583 416.186 296.425 416.529 298.239C416.529 298.239 416.529 298.239 416.559 298.336C416.589 298.433 416.618 298.531 416.648 298.628L425.197 328.939C425.795 330.887 427.864 332.065 429.815 331.466C431.766 330.868 432.947 328.801 432.349 326.852L425.906 304.102L442.13 311.063C443.982 311.881 446.264 310.968 447.084 309.118C447.528 308.129 447.454 307.192 447.155 306.218C447.193 305.993 447.103 305.701 447.044 305.506L440.16 280.973C439.367 279.084 437.298 277.907 435.317 278.408Z" fill="#FFBCDF" stroke="#231F20" stroke-width="2" stroke-miterlimit="10"/>
<path d="M161.694 247.966C185.941 240.53 199.578 214.875 192.153 190.664C184.728 166.454 159.053 152.855 134.806 160.292C110.558 167.728 96.9215 193.383 104.347 217.594C111.772 241.804 137.447 255.403 161.694 247.966Z" fill="#F4D80F"/>
<path d="M166.96 180.912C170.971 183.199 172.474 186.361 171.876 191.021C169.388 210.755 147.576 231.513 128.077 233.017C122.967 233.412 120.172 231.605 118.317 226.951C110.325 206.808 120.623 185.744 142.133 178.614C150.816 175.951 159.067 176.405 166.96 180.912ZM122.173 210.635C124.923 218.211 133.223 221.953 140.976 219.043C151.011 215.219 157.449 202.8 154.123 193.695C151.313 185.924 144.003 182.624 135.995 185.399C124.954 189.425 118.637 200.848 122.173 210.635Z" fill="black"/>
<path d="M154.153 193.792C157.479 202.897 151.041 215.317 141.006 219.14C133.252 222.051 124.953 218.308 122.203 210.732C118.637 200.848 124.887 189.552 136.054 185.594C144.003 182.624 151.342 186.021 154.153 193.792ZM140.738 206.433C141.443 206.643 143.34 201.692 144.596 199.175C140.374 197.592 136.326 195.529 132.021 194.718C130.896 194.53 129.069 197.968 126.574 200.971C132.197 203.297 136.373 205.427 140.738 206.433Z" fill="white"/>
<path d="M126.574 200.971C132.197 203.297 136.373 205.427 140.738 206.433C141.443 206.643 143.34 201.692 144.596 199.175C140.374 197.592 136.326 195.529 132.021 194.718C130.994 194.5 129.069 197.968 126.574 200.971Z" fill="black"/>
<path d="M653.299 717.698C647.832 722.145 642.835 728.474 643.073 735.862C643.121 739.151 648.29 738.951 648.144 735.692C647.956 730.207 651.984 725.242 656.099 721.955C658.57 719.918 655.868 715.631 653.299 717.698Z" fill="#F4D80F"/>
<path d="M637.121 698.359C628.449 704.536 617.739 713.469 616.074 724.745C615.755 727.187 619.445 728.08 619.763 725.638C621.24 715.486 631.386 707.152 639.202 701.664C641.178 700.099 639.126 696.892 637.121 698.359Z" fill="#F4D80F"/>
<path d="M663.422 648.727C658.09 652.921 648.226 657.651 650.25 664.597C653.528 675.635 677.574 684.78 687.428 676.536C694.84 670.426 696.891 656.581 689.077 648.853C681.99 641.754 670.398 643.284 663.422 648.727Z" fill="black"/>
<path d="M694.204 663.48C700.652 666.405 709.569 662.072 712.911 670.532C713.091 671.117 712.82 671.626 712.362 671.873C709.33 673.123 704.473 669.816 701.425 671.71C717.191 673.696 724.556 691.794 716.145 692.562C710.226 693.098 705.422 678.478 698.867 677.291C696.842 676.953 698.953 680.356 699.59 680.693C718.718 692.945 705.345 707.811 701.17 699.073C696.263 688.641 688.961 679.796 687.958 683.834C687.777 684.636 688.046 685.512 688.713 685.947C695.324 690.101 697.174 697.527 691.91 701.593C687.074 705.314 683.681 701.559 680.895 698.044C678.828 695.48 677.129 692.378 676.173 689.26C674.38 683.415 673.462 680.073 667.092 680.535C664.572 680.668 648.273 672.771 651.545 672.3C658.02 671.487 685.47 676.071 693.708 663.952C694.077 663.413 693.694 663.21 694.204 663.48Z" fill="#333333"/>
<path d="M618.876 604.41C619.534 599.945 621.589 595.159 620.491 591.232C618.685 584.645 623.893 582.835 628.909 579.698C631.792 577.961 632.536 576.56 634.947 574.329C637.854 571.626 641.101 566.9 641.961 563.438C644.089 554.366 648.905 548.839 657.819 547.278C658.111 547.188 658.187 546.738 657.835 546.633C650.117 545.483 640.775 547.389 638.928 554.244C636.68 562.926 635.08 570.238 627.423 574.505C624.315 576.204 618.363 578.029 615.443 579.991C609.466 584.169 611.513 590.149 612.426 597.649C613.412 606.086 612.32 615.054 610.373 623.325C605.975 642.046 610.095 651.653 627.467 659.222C637.94 663.79 646.72 667.705 643.628 673.982C638.799 683.989 614.786 649.895 608.56 655.002C606.255 656.881 613.768 659.799 613.051 662.683C610.179 673.156 595.335 654.688 592.715 656.237C589.832 657.974 597.471 667.568 609.3 668.203C617.972 668.635 639.999 678.506 638.249 680.108C637.655 680.61 616.092 683.386 604.585 682.759C592.755 682.124 586.338 679.296 581.994 668.265C578.682 659.902 574.297 651.868 570.136 643.871C564.809 633.462 562.323 624.312 573.933 615.529C580.346 610.685 581.132 606.287 577.541 598.756C572.873 589.103 569.615 579.871 573.44 568.679C576.257 560.461 582.011 554.86 589.937 551.47C596.46 548.723 599.355 543.892 601.307 536.685C603.328 529.351 609.721 527.924 616.055 526.301C616.347 526.211 616.325 525.791 616.071 525.656C609.741 524.507 602.234 527.875 599.953 534.01C597.19 541.359 591.342 544.218 584.362 547.211C576.27 550.759 572.532 558.407 569.707 566.947C565.979 578.109 566.941 587.512 572.03 597.142C574.252 601.257 580.714 610.146 574.307 610.832C554.762 612.883 549.408 572.106 558.852 555.568C561.311 551.403 565.532 547.764 569.759 545.189C577.454 540.697 584.092 535.89 587.854 527.276C591.414 519.043 599.878 517.407 607.488 515.073C598.44 515.503 589.96 517.784 585.672 526.773C582.64 533.245 578.119 537.296 572.06 540.859C565.874 544.355 560.496 549.095 554.774 553.408C554.511 553.595 554.227 553.363 554.264 553.138C554.923 548.673 555.343 543.428 556.82 538.499C557.626 535.907 560.21 533.196 562.597 531.931C570.87 527.582 577.838 522.461 581.459 513.037C584.531 504.954 592.597 503.76 600.76 502.535C601.053 502.445 601.129 501.996 600.776 501.891C591.012 499.983 582.424 504.002 578.413 513.545C574.884 521.875 568.711 526.113 560.666 529.113C560.47 529.173 560.216 529.038 560.253 528.813C562.709 515.59 572.344 508.372 581.701 500.6C592.178 491.951 610.227 491.638 598.862 491.82C593.018 491.907 587.17 494.766 582.163 497.581C576.99 500.553 571.762 505.78 567.083 509.666C567.015 509.793 566.79 509.756 566.761 509.658C566.221 509.291 565.134 508.878 564.496 508.541C564.369 508.473 564.309 508.279 564.347 508.054C567.248 504.287 571.53 499.456 575.15 496.641C591.701 483.784 618.549 483.97 635.441 496.588C639.181 499.385 643.281 501.964 646.36 505.39C648.622 507.893 652.039 515.904 652.434 518.234C652.524 518.527 652.133 518.646 651.878 518.511C648.911 515.798 643.935 512.101 641.651 509.178C635.765 501.818 622.914 502.029 612.361 505.905C613.99 505.299 622.384 505.175 624.095 505.184C629.999 505.292 635.241 506.028 639.324 510.638C642.904 514.656 647.311 517.887 651.273 522.107C651.461 522.37 651.258 522.752 650.905 522.647C648.004 521.192 644.704 520.179 642.825 517.878C636.683 510.382 631.434 508.581 621.744 512.832C621.451 512.922 621.503 513.439 621.923 513.417C629.103 512.813 635.849 511.491 639.89 519.097C639.95 519.292 639.912 519.517 639.717 519.577C636.887 520.445 628.302 523.078 628.302 523.078C627.912 523.197 646.326 525.117 646.513 525.379C650.324 530.498 637.579 530.357 635.29 531.592C635.027 531.78 635.146 532.169 635.469 532.177C648.787 530.011 675.26 536.28 673.87 537.665C670.693 540.878 668.172 541.012 667.585 542.577C667.479 542.929 667.569 543.222 667.862 543.132C674.279 540.737 689.203 544.154 683.521 552.078C679.507 557.785 680.192 550.967 680.124 551.095C674.613 559.926 673.824 555.265 663.456 555.567C656.82 558.988 650.233 553.867 647.699 558.481C644.074 565.455 642.874 570.939 636.006 573.258C633.597 574.103 633.89 579.236 631.66 580.666C631.465 580.726 631.428 580.95 631.585 581.115C632.963 582.824 624.063 585.128 623.406 588.207C621.165 597.953 625.681 603.282 621.427 609.596C611.745 623.97 621.137 641.019 636.287 649.696C638.033 650.865 639.712 652.162 641.458 653.332C642.927 653.947 646.125 657.762 647.294 658.789C662.484 671.077 673.495 672.176 673.427 672.303C670.624 676.041 668.268 670.795 665.907 674.93C663.478 679.192 659.762 675.429 654.062 674.939C652.869 674.878 647.773 670.792 647.407 669.946C639.637 663.056 635.973 659.81 628.972 655.776C612.548 646.425 610.297 640.827 615.648 622.773C617.479 616.562 616.76 610.388 618.718 604.246L618.876 604.41ZM638.21 546.684C642.825 540.152 646.678 542.275 648.663 539.002C649.234 538.08 634.333 540.306 631.15 547.677C630.224 549.879 627.098 553.609 626.66 555.661C621.464 564.822 618.868 565.405 611.091 569.282C607.202 571.221 601.373 577.272 598.841 580.5C593.873 586.926 596.026 592.554 598.016 596.953C601.995 605.751 601.924 613.872 598.882 622.053C597.535 625.663 597.177 629.717 596.691 633.702C596.683 634.024 597.163 634.197 597.269 633.845C599.797 628.167 601.23 622.398 603.24 616.773C605.364 610.473 607.14 606.517 604.027 600.545C600.727 594.309 600.438 586.405 605.17 581.649C608.844 577.965 613.843 575.472 617.771 571.923C621.467 568.658 624.857 563.355 627.923 559.431C631.027 555.281 634.188 552.713 638.21 546.684ZM587.626 579.782C587.618 580.105 588.166 580.15 588.272 579.798C589.65 569.676 599.369 566.909 607.14 561.968C611.795 559.048 615.538 553.85 617.315 548.509C618.949 543.745 622.872 539.131 626.583 535.222C626.748 535.065 626.628 534.675 626.336 534.765C622.351 535.347 614.218 536.669 613.378 541.936C611.804 552.118 605.069 556.954 597.335 561.671C590.616 565.863 586.632 571.668 587.626 579.782ZM582.603 644.844C582.977 645.369 583.826 645.002 583.616 644.32C581.145 635.912 582.183 627.814 586.035 619.491C587.262 616.877 588.87 609.243 585.097 609.121C579.681 608.864 583.343 618.718 580.253 623.609C575.683 630.98 577.609 637.956 582.603 644.844Z" fill="#333333"/>
<path d="M720.348 607.076L716.495 599.731L721.152 595.425L720.348 607.076Z" fill="white" stroke="#231F20" stroke-miterlimit="10"/>
<path d="M730.632 585.27L726.681 577.956L731.338 573.65L730.632 585.27Z" fill="white" stroke="#231F20" stroke-miterlimit="10"/>
<path d="M707.865 601.525C710.02 605.767 704.742 609.091 705.131 615.579C705.594 623.004 715.269 629.842 716.545 629.131C717.754 628.547 715.482 622.53 718.337 619.309C720.26 617.227 722.203 616.951 725.074 618.309C730.082 620.716 731.65 626.524 730.91 630.374C730.01 635.446 723.237 640.508 717.863 642.476C706.725 646.531 694.444 635.376 691.035 632.265C685.888 627.662 677.144 619.686 679.504 610.329C681.616 601.901 692.007 595.411 700.235 596.831C700.94 597.041 706.047 598.032 707.865 601.525Z" fill="#FFBCDF" stroke="#231F20" stroke-miterlimit="10"/>
<path d="M629.85 588.682C633.438 592.377 643.658 590.202 648.783 583.941C653.742 577.837 653.996 567.528 649.514 564.746C645.698 562.399 639.415 565.925 636.448 568.433C629.794 573.884 625.976 584.754 629.85 588.682Z" fill="#6172F0"/>
<path d="M626.266 614.934C626.272 598.945 642.483 571.059 649.079 564.026C657.531 555.04 665.724 548.69 679.893 549.993C692.097 551.153 699.373 562.35 713.225 559.488C716.632 558.763 719.117 557.468 722.544 558.548C735.929 562.863 734.97 572.962 732.175 576.377C730.942 577.928 728.437 577.417 727.287 579.582C726.407 581.237 727.199 583.126 727.468 584.002C729.544 591.466 717.431 606.265 708.813 604.964C704.921 604.453 703.493 600.841 699.763 601.558C696.747 602.164 692.381 607.766 691.576 608.972C688.284 614.245 688.42 619.212 692.261 624.429C693.886 626.595 700.102 628.419 702.733 630.383C709.201 635.114 715.347 638.451 721.45 635.727C727.485 633.13 728.498 627.384 732.166 627.858C736.508 628.444 740.623 636.988 738.543 644.127C736.387 651.716 727.619 656.536 721.98 654.855C715.763 653.031 715.205 644.25 711.424 644.451C695.489 645.394 702.463 658.389 694.845 661.046C689.344 662.946 688.863 657.551 685.048 660.426C682.285 662.553 674.517 654.277 672.086 654.703C663.066 656.617 657.525 660.128 646.176 642.613C636.27 628.065 626.32 641.562 626.266 614.934Z" fill="#333333"/>
<path d="M636.26 602.276C638.534 606.908 654.575 605.612 661.362 601.292C667.955 597.032 665.811 589.696 662.426 585.619C659.543 582.133 652.504 583.546 648.886 584.975C640.802 588.2 633.799 597.383 636.26 602.276Z" fill="#6172F0"/>
<path d="M689.204 559.82C695.514 559.164 700.542 563.377 700.811 569.476C700.907 570.832 700.403 571.626 699.067 572.143C693.889 574.051 685.956 571.155 683.006 566.411C682.355 565.331 682.349 564.268 683.116 563.286C684.716 561.197 686.713 560.051 689.204 559.82ZM691.536 560.811C689.143 561.012 687.745 562.719 687.914 565.012C688.106 567.724 691.208 570.183 694.149 570.027C696.445 569.856 698.105 567.962 697.966 565.766C697.782 562.732 694.867 560.535 691.536 560.811Z" fill="black"/>
<path d="M691.536 560.811C694.867 560.535 697.782 562.732 697.936 565.669C698.105 567.962 696.445 569.856 694.119 569.93C691.081 570.116 688.076 567.627 687.885 564.915C687.745 562.719 689.24 560.982 691.536 560.811ZM695.726 563.682C694.736 563.24 693.882 562.543 693.619 562.73C692.665 563.449 691.801 564.46 690.877 565.276C691.447 565.741 692.518 566.798 692.683 566.64C693.765 565.989 694.599 564.88 695.726 563.682Z" fill="white"/>
<path d="M695.726 563.682C694.501 564.91 693.765 565.989 692.713 566.738C692.548 566.895 691.477 565.838 690.907 565.373C691.801 564.46 692.568 563.478 693.649 562.827C693.882 562.543 694.834 563.21 695.726 563.682Z" fill="black"/>
<path d="M678.501 575.04C685.651 574.339 691.474 579.055 691.787 585.993C691.845 587.574 691.274 588.495 689.743 589.071C683.881 591.189 674.793 588.007 671.507 582.514C670.699 581.27 670.76 580.078 671.692 578.94C673.331 576.626 675.62 575.39 678.501 575.04ZM681.118 576.262C678.402 576.456 676.771 578.448 676.933 581.063C677.146 584.195 680.661 586.954 684.12 586.746C686.738 586.582 688.631 584.403 688.5 581.885C688.167 578.364 684.869 575.964 681.118 576.262Z" fill="black"/>
<path d="M681.118 576.262C684.869 575.964 688.197 578.461 688.47 581.788C688.631 584.403 686.738 586.582 684.09 586.648C680.631 586.856 677.214 584.067 676.903 580.965C676.742 578.35 678.5 576.426 681.118 576.262ZM685.945 579.471C684.828 578.961 683.846 578.197 683.583 578.384C682.434 579.162 681.503 580.301 680.541 581.342C681.238 581.874 682.467 583.096 682.632 582.939C683.653 582.093 684.555 580.857 685.945 579.471Z" fill="white"/>
<path d="M685.945 579.471C684.555 580.857 683.653 582.093 682.504 582.871C682.339 583.028 681.111 581.807 680.414 581.274C681.375 580.233 682.337 579.192 683.456 578.316C683.846 578.197 684.828 578.961 685.945 579.471Z" fill="black"/>
<path d="M714.896 566.329C714.574 566.321 713.988 566.501 712.32 568.718C710.449 571.317 707.608 575.279 708.918 577.115C710.446 579.311 718.008 578.91 719.656 574.888C721.131 571.345 717.387 566.098 714.896 566.329Z" fill="#FFBCDF" stroke="#231F20" stroke-miterlimit="10"/>
<path d="M674.553 571.561C674.716 572.79 673.784 573.929 672.456 574.123L662.005 575.196C660.774 575.361 659.635 574.431 659.442 573.105C659.279 571.876 660.21 570.738 661.538 570.543L671.99 569.47C673.25 569.403 674.389 570.333 674.553 571.561Z" fill="#6172F0" stroke="#231F20" stroke-width="2" stroke-miterlimit="10"/>
<path d="M679.424 563.779C678.224 564.041 676.919 563.268 676.659 562.069L674.264 551.826C674.003 550.627 674.778 549.324 675.978 549.062C677.179 548.801 678.483 549.573 678.744 550.772L681.138 561.015C681.527 562.282 680.723 563.488 679.424 563.779Z" fill="#6172F0" stroke="#231F20" stroke-width="2" stroke-miterlimit="10"/>
<path d="M635.513 594.619C639.524 585.075 649.364 581.311 659.22 582.126C659.993 582.208 660.024 580.92 659.154 580.867C648.848 579.978 638.55 583.988 634.366 594.011C634.057 594.745 635.204 595.353 635.513 594.619Z" fill="black"/>
<path d="M703.27 604.64C693.035 612.681 698.239 625.473 708.907 629.982C709.642 630.289 710.251 629.143 709.517 628.836C699.867 624.867 694.377 613.229 703.921 605.719C704.612 605.187 703.961 604.108 703.27 604.64Z" fill="black"/>
<path d="M302.722 636.588C312.332 625.519 311.145 608.772 300.07 599.184C288.996 589.595 272.228 590.794 262.617 601.863C253.007 612.932 254.194 629.678 265.269 639.267C276.343 648.856 293.111 647.656 302.722 636.588Z" fill="#6172F0"/>
<path d="M280.806 604.127C289.78 603.792 296.561 610.265 296.399 618.82C296.311 620.85 295.586 621.852 293.586 622.457C286.044 624.593 275.039 619.863 271.413 612.86C270.537 611.19 270.679 609.759 271.884 608.381C274.201 605.605 277.253 604.27 280.806 604.127ZM284.014 605.857C280.669 605.951 278.39 608.15 278.388 611.47C278.463 615.296 282.554 619.087 286.755 619.096C290.078 619.095 292.63 616.569 292.609 613.342C292.644 609.053 288.744 605.697 284.014 605.857Z" fill="black"/>
<path d="M284.014 605.857C288.722 605.79 292.622 609.146 292.609 613.342C292.63 616.569 290.078 619.095 286.755 619.096C282.461 619.065 278.349 615.366 278.388 611.47C278.483 608.172 280.69 605.858 284.014 605.857ZM289.728 610.224C288.334 609.507 287.212 608.462 286.868 608.675C285.38 609.595 284.105 610.858 282.829 612.121C283.624 612.894 285.029 614.395 285.258 614.253C286.676 613.219 287.951 611.956 289.728 610.224Z" fill="white"/>
<path d="M289.728 610.224C287.973 611.863 286.675 613.219 285.166 614.232C284.937 614.373 283.532 612.872 282.736 612.099C284.083 610.951 285.288 609.573 286.776 608.653C287.212 608.462 288.334 609.507 289.728 610.224Z" fill="black"/>
</g>
<defs>
<clipPath id="clip0">
<rect width="584.429" height="777.658" fill="white" transform="translate(0.426758 171.449) rotate(-17.0502)"/>
</clipPath>
</defs>
</svg>
